<svg xmlns="http://www.w3.org/2000/svg" xmlns:xlink="http://www.w3.org/1999/xlink" viewBox="0 0 640 640"><defs><path d="M61 286c0 26.79 14.24 50.17 35.43 63.44 1.06 2 6.35 12 15.89 30h48.79c8.68-18 13.5-28 14.46-30C196.76 336.17 211 312.79 211 286c0-41.35-33.65-75-75-75s-75 33.65-75 75zm45-256c-8.28 0-15-6.72-15-15 0-8.29-6.71-15-15-15S61 6.71 61 15c0 24.81 20.19 45 45 45h60c8.28 0 15 6.72 15 15 0 8.28-6.72 15-15 15h-30c-8.29 0-15 6.71-15 15v61c0 8.29 6.71 15 15 15s15-6.71 15-15v-46h15c24.81 0 45-20.19 45-45s-20.19-45-45-45h-60zm195 256c0 26.79 14.24 50.17 35.43 63.44 1.06 2 6.35 12 15.89 30h48.78c8.69-18 13.51-28 14.47-30C436.76 336.17 451 312.79 451 286c0-41.35-33.65-75-75-75s-75 33.65-75 75zM406 60c8.28 0 15 6.72 15 15 0 8.28-6.72 15-15 15h-30c-8.29 0-15 6.71-15 15v61c0 8.29 6.71 15 15 15s15-6.71 15-15v-46h15c24.81 0 45-20.19 45-45s-20.19-45-45-45h-60c-8.28 0-15-6.72-15-15 0-8.29-6.71-15-15-15s-15 6.71-15 15c0 24.81 20.19 45 45 45h60z" id="a"/><path d="M181 196c0-24.81-20.19-45-45-45s-45 20.19-45 45 20.19 45 45 45 45-20.19 45-45zm-45 105c8.28 0 15-6.72 15-15 0-8.28-6.72-15-15-15-8.28 0-15 6.72-15 15 0 8.28 6.72 15 15 15zm39.58 48.44C164.05 356.65 150.56 361 136 361c-14.56 0-28.05-4.35-39.57-11.56-5.95 4.46-53.48 40.11-59.42 44.56-6.64 4.97-7.99 14.37-3.01 20.99 4.95 6.63 14.36 7.99 20.99 3.01 3.79-2.84 34.09-25.57 37.88-28.41.98 5.25 2.3 11.37 3.91 18.2-3.33 4.99-29.93 44.9-33.26 49.89-4.6 6.9-2.74 16.2 4.16 20.8 7.01 4.65 16.28 2.63 20.8-4.16 1.83-2.74 16.42-24.63 18.24-27.37 5.87 21.84 11.83 43.72 14.88 54.22A14.976 14.976 0 00136 512c6.68 0 12.55-4.41 14.4-10.83 3.05-10.5 9.01-32.38 14.88-54.22 1.82 2.74 16.41 24.63 18.24 27.37 4.52 6.79 13.78 8.81 20.8 4.16 6.9-4.6 8.76-13.9 4.16-20.8-3.33-4.99-29.93-44.9-33.26-49.89 1.61-6.83 2.93-12.95 3.91-18.2 3.79 2.84 34.09 25.57 37.87 28.41 6.65 4.98 16.05 3.61 21-3.01 4.98-6.62 3.63-16.02-3.01-20.99-11.88-8.91-53.47-40.1-59.41-44.56zM421 196c0-24.81-20.19-45-45-45s-45 20.19-45 45 20.19 45 45 45 45-20.19 45-45zm-45 105c8.28 0 15-6.72 15-15 0-8.28-6.72-15-15-15-8.28 0-15 6.72-15 15 0 8.28 6.72 15 15 15zm39.58 48.44C404.06 356.65 390.56 361 376 361c-14.56 0-28.05-4.35-39.57-11.56-5.95 4.46-53.48 40.11-59.42 44.56-6.64 4.97-7.99 14.37-3.01 20.99 4.95 6.63 14.36 7.99 20.99 3.01 3.79-2.84 34.09-25.57 37.88-28.41.98 5.25 2.3 11.37 3.91 18.2-3.33 4.99-29.93 44.9-33.26 49.89-4.6 6.9-2.74 16.2 4.16 20.8 7.02 4.65 16.28 2.63 20.8-4.16 1.83-2.74 16.42-24.63 18.24-27.37 5.87 21.84 11.83 43.72 14.88 54.22A14.976 14.976 0 00376 512c6.68 0 12.55-4.41 14.4-10.83 3.05-10.5 9.01-32.38 14.88-54.22 1.82 2.74 16.41 24.63 18.24 27.37 4.52 6.79 13.78 8.81 20.8 4.16 6.9-4.6 8.76-13.9 4.16-20.8-3.33-4.99-29.93-44.9-33.26-49.89 1.61-6.83 2.93-12.95 3.91-18.2 3.79 2.84 34.09 25.57 37.88 28.41 6.64 4.98 16.04 3.61 20.99-3.01 4.98-6.62 3.63-16.02-3.01-20.99-11.88-8.91-53.47-40.1-59.41-44.56z" id="b"/></defs><use xlink:href="#a" fill="#dd636e"/><use xlink:href="#a" fill-opacity="0" stroke="#000" stroke-opacity="0"/><g><use xlink:href="#b" fill="#0f4552"/><use xlink:href="#b" fill-opacity="0" stroke="#000" stroke-opacity="0"/></g></svg>