<?xml version="1.0" encoding="UTF-8"?>
<svg xmlns="http://www.w3.org/2000/svg" viewBox="0 0 512 512" width="512" height="512"><g id="Fill_out_line" data-name="Fill out line"><path d="M312,40c16-16,24-16,48-16s56,16,56,64-16,64-40,64H283.332Z" style="fill:#e7f2da"/><path d="M320,48c16-8,48-8,48,32l-48,9.04931Z" style="fill:#03999c"/><circle cx="168" cy="96" r="32" style="fill:#e7f2da"/><path d="M288,304c0-24,96-48,96-112,0-85.06955,0-125.28274-50.58974-127.86665C315.3131,16.05817,270.42477,17.18142,240,40l-80,64c-16,16-16,40-16,72,0,40,56,80,56,80Z" style="fill:#e7f2da"/><path d="M416,496H96c0-30.26-7.15-67.66016,12.36-98.69995l-11.58-4.97c28.68-45.71,75.55-56.52,103.68-67.41016,10.39-4.02978,18.22-8.06006,21.64-13.86987A13.5294,13.5294,0,0,0,224,304c0-32-56-32-56-88,0-80-16-152,96-152s88,80,88,112l3.03-3.03a16.97,16.97,0,0,1,28.97,12v3.54a16.96872,16.96872,0,0,1-10.67,15.76l-26.55,10.62012C331.51,265.23,288,271.02,288,304a13.5294,13.5294,0,0,0,1.9,7.05c3.42,5.80981,11.25,9.84009,21.64,13.86987,28.13,10.89014,75,21.7002,103.68,67.41016l-11.58,4.97C423.15,428.33984,416,465.74,416,496Z" style="fill:#f5a971"/><path d="M403.64,397.30005l-41.5,17.78A57.47266,57.47266,0,0,1,368,440c0,24-16,32-16,56H160c0-24-16-32-16-56a57.47266,57.47266,0,0,1,5.86-24.91992l-41.5-17.78-11.58-4.97c23.62994-37.66016,59.6-51.63013,87.27-61.48,18.32-6.51026,33-11.22022,38.05-19.8L256,328l33.9-16.94995c5.05,8.57983,19.73,13.28979,38.05,19.80005,27.67,9.84985,63.64,23.81982,87.27,61.48Z" style="fill:#f57a08"/><path d="M200,104s-8,32-32,40V88Z" style="fill:#e7f2da"/><path d="M248,96c15.43579,15.43579,45.76255,15.98,55.06541,8.816C292.75229,140.29779,331.30149,176,352,176l16-90L264,49.33333,242.33333,59.66667Z" style="fill:#e7f2da"/><path d="M256,328v28a12.0046,12.0046,0,0,1-20,8.95,12.00864,12.00864,0,0,1-19.58-5.79,12.00974,12.00974,0,0,1-15.26-16.32007A12.01008,12.01008,0,0,1,184,332c0-.39014.02-.77.05-1.1499,18.32-6.51026,33-11.22022,38.05-19.8Z" style="fill:#f0cd81"/><path d="M328,332a12.01008,12.01008,0,0,1-17.16,10.83984,12.00857,12.00857,0,0,1-15.26,16.32007A12.00864,12.00864,0,0,1,276,364.95,12.0046,12.0046,0,0,1,256,356V328l33.9-16.94995c5.05,8.57983,19.73,13.28979,38.05,19.80005C327.98,331.23,328,331.60986,328,332Z" style="fill:#f0cd81"/><path d="M311.54,324.91992C307.56,346.08008,278.32,358.87988,256,344c-22.32,14.87988-51.56,2.08008-55.54-19.08008,10.39-4.02978,18.22-8.06006,21.64-13.86987L256,328l33.9-16.94995C293.32,316.85986,301.15,320.89014,311.54,324.91992Z" style="fill:#f57a08"/><circle cx="216" cy="72" r="48" style="fill:#e7f2da"/><path d="M273.78906,228.42188a3.99916,3.99916,0,0,0-5.3667,1.78906c-3.832,7.66406-11.59814,9.97558-15.88672,10.67187-6.97753,1.13184-14.4248-.42969-17.707-3.71093a3.99991,3.99991,0,0,0-5.65722,5.65624c4.07666,4.07715,11.18457,6.42383,18.76806,6.42383a36.76546,36.76546,0,0,0,5.87793-.47265c9.86621-1.60059,17.79737-7.06446,21.76026-14.99024A4.00093,4.00093,0,0,0,273.78906,228.42188Z"/><path d="M264,180c7.69629,0,14.34326,0,21.17139,6.82812a3.99991,3.99991,0,1,0,5.65722-5.65624C281.65674,172,272.27637,172,264,172a4,4,0,0,0,0,8Z"/><path d="M192,188a3.98727,3.98727,0,0,0,2.82861-1.17188C201.65674,180,208.30371,180,216,180a4,4,0,0,0,0-8c-8.27637,0-17.65674,0-26.82861,9.17188A4,4,0,0,0,192,188Z"/><path d="M292,240a4,4,0,0,0,8,0c0-10.28027-9.71973-20-20-20a4,4,0,0,0,0,8C285.83154,228,292,234.168,292,240Z"/><path d="M226.82861,229.17188a3.99971,3.99971,0,0,0-5.65722,0C212.10449,238.23926,212,247.60547,212,248a4,4,0,0,0,8,0c0-.06348.18555-6.5293,6.82861-13.17188A3.99942,3.99942,0,0,0,226.82861,229.17188Z"/><circle cx="268" cy="388" r="4"/><circle cx="268" cy="412" r="4"/><path d="M280,52c13.26611,0,20.35791,13.66211,20.42236,13.78906a4,4,0,1,0,7.15528-3.57812C307.20605,61.46777,298.26221,44,280,44a4,4,0,0,0,0,8Z"/><path d="M280,76c5.16016,0,11.26123,4.93262,13.17139,6.82812a3.99991,3.99991,0,0,0,5.65722-5.65624C297.88965,76.23242,289.38574,68,280,68a4,4,0,0,0,0,8Z"/><path d="M87.39648,476.9248l.022.48536C87.71777,483.94336,88,490.11523,88,496h12c0-6.15918-.28857-12.46387-.59375-19.13867l-.02246-.48926c-1.16986-25.20483-2.483-53.73315,12.7149-77.47266l34.06354,14.59864A61.43411,61.43411,0,0,0,140,440c0,12.94434,4.28174,21.50781,8.42236,29.78906C152.31934,477.583,156,484.94434,156,496h8c0-12.94434-4.28174-21.50781-8.42236-29.78906C151.68066,458.417,148,451.05566,148,440c0-21.917,14.625-36.96582,14.8335-37.17676a3.99992,3.99992,0,0,0-5.66211-5.65136,57.08922,57.08922,0,0,0-7.127,9.28588l-44.957-19.26733-.003-.00586a121.01185,121.01185,0,0,1,10.7544-12.69922c19.8927-20.43091,43.93109-30.56347,64.77618-38.14209A16.01709,16.01709,0,0,0,196,348a16.00813,16.00813,0,0,0,18.06592,15.86719A16.01616,16.01616,0,0,0,236,369.86328a15.95314,15.95314,0,0,0,16-.02832V424a4,4,0,0,0,8,0V369.835a15.95314,15.95314,0,0,0,16,.02832,16.01616,16.01616,0,0,0,21.93408-5.99609A16.00813,16.00813,0,0,0,316,348a16.01716,16.01716,0,0,0,15.385-11.657c20.81476,7.56592,44.87067,17.69848,64.77515,38.14136a120.7498,120.7498,0,0,1,10.75647,12.70434l-44.96106,19.269a57.08922,57.08922,0,0,0-7.127-9.28588,3.99991,3.99991,0,0,0-5.65722,5.65624C349.31982,402.97656,364,417.91211,364,440c0,11.05566-3.68066,18.417-7.57764,26.21094C352.28174,474.49219,348,483.05566,348,496h8c0-11.05566,3.68066-18.417,7.57764-26.21094C367.71826,461.50781,372,452.94434,372,440a61.43411,61.43411,0,0,0-6.16223-26.502L399.904,398.89844c15.19623,23.74218,13.88275,52.269,12.71222,77.47754l-.02246.48535C412.28857,483.53613,412,489.84082,412,496h12c0-5.88477.28223-12.05664.58154-18.58984l.022-.48145c1.17382-25.28613,2.49218-53.69726-11.51172-79.32422l5.29345-2.26953a6.00043,6.00043,0,0,0,2.67188-8.77441,132.966,132.966,0,0,0-16.29834-20.44629c-24.58447-25.251-54.04736-35.68457-77.78223-44.08985-17.27832-6.11328-30.93164-10.94433-30.97607-18.0664l.00049-.01367c.26709-4.93555,15.95947-15.2627,27.43164-22.81153C352.36914,262.084,392,235.99707,392,192c0-12.20215,0-23.81543-.15283-34.43652,10.29248-3.48633,18.19775-10.69141,23.54394-21.47754C421.18408,124.39844,424,108.669,424,88c0-22.61719-6.89795-41.41406-19.94873-54.35645C392.57861,22.26562,376.93457,16,360,16c-20.29785,0-31.32324,0-44.92432,10.51758-18.85937-12.69727-43.99365-13.00684-67.46533-.73633a56.00486,56.00486,0,0,0-85.41113,30.62793A39.79144,39.79144,0,0,0,128,96a40.42008,40.42008,0,0,0,11.87109,28.4248C136.00049,139.03027,136,156.2793,136,176c0,17.13574,8.54688,35.69336,25.40527,55.17383,4.98438,25.53711,21.90967,38.33008,35.56787,48.65332C208.77,288.73828,216,294.67383,216,304c0,7.06445-13.66992,11.90137-31.0376,18.0459-23.67383,8.38379-53.13672,18.81738-77.72217,44.06933a133.38617,133.38617,0,0,0-16.29541,20.43165,5.99972,5.99972,0,0,0,2.67188,8.77832l5.29932,2.27148C84.90283,423.22363,86.22266,451.63672,87.39648,476.9248ZM314.23315,330.20117c2.82233,1.04029,9.33088,3.345,9.59632,3.439a8.01053,8.01053,0,0,1-11.27478,5.58545,3.98746,3.98746,0,0,0-3.18909-.09229A32.64334,32.64334,0,0,0,314.23315,330.20117Zm-7.00756,14.35254a8.00831,8.00831,0,0,1-10.17871,10.88477,4.00013,4.00013,0,0,0-5.32618,2.66992,8.00878,8.00878,0,0,1-13.05175,3.8623,3.99892,3.99892,0,0,0-5.3379,0A8.00471,8.00471,0,0,1,260,356v-5.2627a41.95291,41.95291,0,0,0,33.56689.37989,39.45254,39.45254,0,0,0,13.38239-9.16138A3.98407,3.98407,0,0,0,307.22559,344.55371Zm-.44342-17.24438c-2.42035,7.063-8.3219,13.06982-16.3183,16.43481A34.11793,34.11793,0,0,1,260,341.78125V330.47266l28.65686-14.32837C292.6615,320.65063,299.01855,324.09668,306.78217,327.30933Zm10.04254-56.18726c-5.51636,3.63135-10.67639,7.03149-15.206,10.32007,3.38855-3.85645,7.45948-7.63623,11.87787-11.73218,12.61377-11.69238,28.23877-26.17578,36.53125-51.80957l24.79-9.91894a21.21472,21.21472,0,0,0,3.40259-1.74537C370.78015,235.58789,341.22461,255.061,316.82471,271.12207ZM360,28c13.748,0,26.3916,5.03027,35.60107,14.16406C406.32959,52.80371,412,68.65332,412,88c0,46.68018-15.894,55.854-24.39813,58.38989-.61041-20.69873-2.15894-37.335-6.0965-50.4143a56.02884,56.02884,0,0,0-9.57654-19.17945c-.788-18.17627-8.3255-27.1018-14.60071-31.40063-9.83471-6.7378-22.41357-6.46582-31.87683-3.75757a61.16169,61.16169,0,0,0-4.16931-4.72778C332.17236,28.00415,339.76007,28,360,28Zm2.87109,40.49194c-7.02722-4.67114-15.82226-7.33056-26.67627-8.18042a81.58054,81.58054,0,0,0-5.86547-11.66064c7.16931-1.52222,15.77612-1.24609,22.47827,3.34521C357.89111,55.478,361.25177,61.01367,362.87109,68.49194ZM216,28a44.17033,44.17033,0,0,1,38.11621,22.00293,4,4,0,1,0,6.92481-4.00586,51.79365,51.79365,0,0,0-7.36976-9.82251c15.072-7.71728,31.03211-9.51782,44.47278-4.84741,14.02637,4.875,24.92285,16.708,31.51221,34.2207a4.0005,4.0005,0,0,0,3.54053,2.58692c22.773,1.15625,34.71989,9.5319,41.14172,31.86645-16.02106.01-32.30176.30542-41.16711,9.17066a3.99991,3.99991,0,1,0,5.65722,5.65624C345.65674,108,361.08252,108,376,108h.18109q.72858,3.82764,1.2807,8.02759c-15.83246.16577-28.54217,1.396-36.28991,9.14429a3.99957,3.99957,0,1,0,5.65624,5.65624c6.16681-6.166,19.64643-6.75146,31.51673-6.8164,1.15381,12.584,1.504,27.363,1.60907,44.47827a20.91389,20.91389,0,0,0-27.75324,1.65259l-1.77734,1.77734c-12.02344-1.18457-31.00537-15.37207-40-34.08691-5.67871-11.81543-9.47314-29.61817,4.7002-47.334a4.0002,4.0002,0,0,0-6.24708-4.998,53.05056,53.05056,0,0,0-9.17547,16.75341c-6.59174,3.8501-24.9975,4.92579-39.68573-2.56494A51.75,51.75,0,0,0,265.04,89.333a4.00013,4.00013,0,0,0-7.543-2.666A44.00563,44.00563,0,1,1,216,28Zm81.2356,130.77148a3.98674,3.98674,0,0,0-.05085-5.59765l-5.66394-5.6731A7.99956,7.99956,0,0,0,283.332,145.563l-18.3717,6.11719a4.26843,4.26843,0,0,0-1.7013,7.03637C244.00189,160.65479,244,165.99194,244,168c0,1.07031.00055,2.43408.07336,4h-8.14672c.07281-1.56592.07336-2.92969.07336-4,0-2.00806-.00189-7.34521-19.259-9.28345a4.26843,4.26843,0,0,0-1.7013-7.03637L196.668,145.563a7.99956,7.99956,0,0,0-8.18878,1.93774l-5.66394,5.6731a3.98674,3.98674,0,0,0-.05085,5.59765A59.41843,59.41843,0,0,0,172,160.74561V146.76074c12.56769-5.26318,20.71179-16.36963,25.70605-26.09228a51.953,51.953,0,0,0,57.47425-14.49121,63.08188,63.08188,0,0,0,29.308,7.13134,49.1485,49.1485,0,0,0,13.17511-1.65625c-1.08276,9.6106.74622,19.65259,5.5495,29.64649A80.22568,80.22568,0,0,0,330.034,172H315.92664c.07281-1.56592.07336-2.92969.07336-4C316,166.00977,315.984,160.752,297.2356,158.77148ZM307.99121,169.167C307.7915,181.91309,304.07959,196,280,196s-27.7915-14.08691-27.99121-26.833C254.78662,167.77637,264.65918,166,280,166S305.21338,167.77637,307.99121,169.167Zm-80,0C227.7915,181.91309,224.07959,196,200,196s-27.7915-14.08691-27.99121-26.833C174.78662,167.77637,184.65918,166,200,166S225.21338,167.77637,227.99121,169.167ZM164,143.99316v71.29932C153.38336,201.12866,148,187.94482,148,176c0-18.68555.01093-35.031,3.37354-48.07544.94757.49243,1.91394.9585,2.91552,1.37134a4.00011,4.00011,0,1,0,3.04883-7.39649A27.92247,27.92247,0,0,1,140,96a28.2392,28.2392,0,0,1,24.14856-27.73071C164.06061,69.50293,164,70.74414,164,72a52.02489,52.02489,0,0,0,26.46082,45.26953c-4.63984,8.95068-12.2074,19.08936-23.726,22.92871A4.00059,4.00059,0,0,0,164,143.99316ZM204.2124,270.252C189.11328,258.83789,172,245.90137,172,216V193.78516C178.10419,200.56348,187.48657,204,200,204c8.26489,0,15.156-1.50757,20.64929-4.47607A15.96876,15.96876,0,0,0,236,220h4a4,4,0,0,0,0-8h-4a8,8,0,0,1,0-16h4a4,4,0,0,0,0-8h-4a15.92416,15.92416,0,0,0-4.32782.61108A32.77762,32.77762,0,0,0,234.89026,180h10.21948a32.53858,32.53858,0,0,0,3.41712,8.98438C254.2207,198.94824,264.80957,204,280,204s25.7793-5.05176,31.47314-15.01562A32.53858,32.53858,0,0,0,314.89026,180H352a4.00163,4.00163,0,0,0,2.82861-1.17188l3.0293-3.02929a12.96975,12.96975,0,0,1,22.14081,9.147q.00083,1.77137.0011,3.56934a12.90958,12.90958,0,0,1-8.15363,12.03857l-26.55322,10.624a3.99978,3.99978,0,0,0-2.3418,2.55274c-7.498,24.7168-22.05224,38.209-34.89306,50.11328C295.14893,275.81055,284,286.14551,284,304a18.35046,18.35046,0,0,0,.718,5.16846L256,323.52832l-28.71826-14.36011A18.342,18.342,0,0,0,228,304C228,288.2334,216.44531,279.499,204.2124,270.252Zm19.13007,45.89185L252,330.47266v11.30859a34.1176,34.1176,0,0,1-30.46387,1.96289c-7.99585-3.36475-13.897-9.37109-16.31775-16.4331C212.97778,324.09937,219.33636,320.65234,223.34247,316.1438Zm-18.56806,28.40991a3.98407,3.98407,0,0,0,.27631-2.5979,39.45234,39.45234,0,0,0,13.38239,9.16138A42.07586,42.07586,0,0,0,252,350.75073V356a8.00471,8.00471,0,0,1-13.33105,5.9707,3.99892,3.99892,0,0,0-5.3379,0,8.00878,8.00878,0,0,1-13.05175-3.8623,4.00013,4.00013,0,0,0-5.32618-2.66992,8.00942,8.00942,0,0,1-10.17871-10.88477Zm-7.00683-14.35083a32.63667,32.63667,0,0,0,4.8659,8.9292,3.9854,3.9854,0,0,0-3.18817.09351,8.01053,8.01053,0,0,1-11.27478-5.58545C188.44562,333.54272,194.95435,331.24,197.76758,330.20288Z"/></g></svg>
