<svg version="1.1" xmlns="http://www.w3.org/2000/svg" xmlns:xlink="http://www.w3.org/1999/xlink" preserveAspectRatio="xMidYMid meet" viewBox="0 0 640 640" width="640" height="640"><defs><path d="M476.38 189.9C458.13 189.9 443.34 204.69 443.34 222.95C443.34 241.2 458.13 255.99 476.38 255.99C494.64 255.99 509.43 241.2 509.43 222.95C509.43 204.69 494.64 189.9 476.38 189.9Z" id="k3p0N2tADD"></path><path d="M476.38 256.01C458.13 256.01 443.34 270.8 443.34 289.05C443.34 307.31 458.13 322.1 476.38 322.1C494.64 322.1 509.43 307.31 509.43 289.05C509.43 270.8 494.64 256.01 476.38 256.01Z" id="bjDGcK1Ki"></path><path d="M329.7 0C311.44 0 296.65 14.8 296.65 33.05C296.65 51.3 311.44 66.1 329.7 66.1C347.95 66.1 362.74 51.3 362.74 33.05C362.74 14.8 347.95 0 329.7 0Z" id="anCtVOarn"></path><path d="M394.05 15.28C375.8 15.28 361 30.07 361 48.33C361 66.58 375.8 81.37 394.05 81.37C412.3 81.37 427.1 66.58 427.1 48.33C427.1 30.07 412.3 15.28 394.05 15.28Z" id="d8l0RRkuJI"></path><path d="M437.6 65C419.35 65 404.55 79.8 404.55 98.05C404.55 116.3 419.35 131.1 437.6 131.1C455.85 131.1 470.65 116.3 470.65 98.05C470.65 79.8 455.85 65 437.6 65Z" id="a6uU8cjIA"></path><path d="M466.78 124.32C448.53 124.32 433.73 139.12 433.73 157.37C433.73 175.62 448.53 190.42 466.78 190.42C485.03 190.42 499.83 175.62 499.83 157.37C499.83 139.12 485.03 124.32 466.78 124.32Z" id="kydp1kcy"></path><path d="M184.58 189.9C166.33 189.9 151.53 204.69 151.53 222.95C151.53 241.2 166.33 255.99 184.58 255.99C202.83 255.99 217.63 241.2 217.63 222.95C217.63 204.69 202.83 189.9 184.58 189.9Z" id="aWktZagRC"></path><path d="M192.89 124.32C174.64 124.32 159.84 139.12 159.84 157.37C159.84 175.62 174.64 190.42 192.89 190.42C211.14 190.42 225.94 175.62 225.94 157.37C225.94 139.12 211.14 124.32 192.89 124.32Z" id="b3YcCJY1Hd"></path><path d="M222.1 65.01C203.84 65.01 189.05 79.8 189.05 98.05C189.05 116.3 203.84 131.1 222.1 131.1C240.35 131.1 255.14 116.3 255.14 98.05C255.14 79.8 240.35 65.01 222.1 65.01Z" id="a3Tm1hYaAt"></path><path d="M265.36 15.28C247.11 15.28 232.31 30.08 232.31 48.33C232.31 66.58 247.11 81.38 265.36 81.38C283.61 81.38 298.41 66.58 298.41 48.33C298.41 30.08 283.61 15.28 265.36 15.28Z" id="f1GebhUy5w"></path><path d="M331.27 445.9C313.01 445.9 298.22 460.7 298.22 478.95C298.22 497.2 313.01 512 331.27 512C349.52 512 364.31 497.2 364.31 478.95C364.31 460.7 349.52 445.9 331.27 445.9Z" id="aqGxrKYHJ"></path><path d="M266.91 430.63C248.66 430.63 233.87 445.42 233.87 463.67C233.87 481.93 248.66 496.72 266.91 496.72C285.17 496.72 299.96 481.93 299.96 463.67C299.96 445.42 285.17 430.63 266.91 430.63Z" id="bTyT8ZvfR"></path><path d="M223.36 380.9C205.11 380.9 190.31 395.7 190.31 413.95C190.31 432.2 205.11 447 223.36 447C241.61 447 256.41 432.2 256.41 413.95C256.41 395.7 241.61 380.9 223.36 380.9Z" id="ayNB1zzeS"></path><path d="M194.18 321.58C175.93 321.58 161.13 336.38 161.13 354.63C161.13 372.88 175.93 387.68 194.18 387.68C212.43 387.68 227.23 372.88 227.23 354.63C227.23 336.38 212.43 321.58 194.18 321.58Z" id="afayfEIpj"></path><path d="M184.58 256.01C166.33 256.01 151.53 270.8 151.53 289.05C151.53 307.31 166.33 322.1 184.58 322.1C202.83 322.1 217.63 307.31 217.63 289.05C217.63 270.8 202.83 256.01 184.58 256.01Z" id="d1hi9ulwNY"></path><path d="M468.07 321.58C449.82 321.58 435.02 336.38 435.02 354.63C435.02 372.88 449.82 387.68 468.07 387.68C486.32 387.68 501.12 372.88 501.12 354.63C501.12 336.38 486.32 321.58 468.07 321.58Z" id="e2eAH99pIh"></path><path d="M438.87 380.9C420.61 380.9 405.82 395.7 405.82 413.95C405.82 432.2 420.61 446.99 438.87 446.99C457.12 446.99 471.91 432.2 471.91 413.95C471.91 395.7 457.12 380.9 438.87 380.9Z" id="j8wLWEXrV"></path><path d="M395.6 430.62C377.35 430.62 362.55 445.42 362.55 463.67C362.55 481.92 377.35 496.72 395.6 496.72C413.85 496.72 428.65 481.92 428.65 463.67C428.65 445.42 413.85 430.62 395.6 430.62Z" id="djOl9wkER"></path><path d="M331.16 445.91C331.16 452.52 331.16 505.39 331.16 512C331.19 512 331.23 512 331.27 512C349.52 512 364.31 497.2 364.31 478.95C364.31 460.7 349.52 445.9 331.27 445.9C331.23 445.9 331.2 445.91 331.16 445.91Z" id="e1cXAXGk4o"></path><path d="M329.59 0C329.59 6.61 329.59 59.48 329.59 66.09C329.62 66.09 329.66 66.1 329.7 66.1C347.95 66.1 362.74 51.3 362.74 33.05C362.74 14.8 347.95 0 329.7 0C329.66 0 329.63 0 329.59 0Z" id="caffTttC5"></path></defs><g><g><g><use xlink:href="#k3p0N2tADD" opacity="1" fill="#ff4b54" fill-opacity="1"></use><g><use xlink:href="#k3p0N2tADD" opacity="1" fill-opacity="0" stroke="#000000" stroke-width="1" stroke-opacity="0"></use></g></g><g><use xlink:href="#bjDGcK1Ki" opacity="1" fill="#b5004a" fill-opacity="1"></use><g><use xlink:href="#bjDGcK1Ki" opacity="1" fill-opacity="0" stroke="#000000" stroke-width="1" stroke-opacity="0"></use></g></g><g><use xlink:href="#anCtVOarn" opacity="1" fill="#ff4b54" fill-opacity="1"></use><g><use xlink:href="#anCtVOarn" opacity="1" fill-opacity="0" stroke="#000000" stroke-width="1" stroke-opacity="0"></use></g></g><g><use xlink:href="#d8l0RRkuJI" opacity="1" fill="#b5004a" fill-opacity="1"></use><g><use xlink:href="#d8l0RRkuJI" opacity="1" fill-opacity="0" stroke="#000000" stroke-width="1" stroke-opacity="0"></use></g></g><g><use xlink:href="#a6uU8cjIA" opacity="1" fill="#ff4b54" fill-opacity="1"></use><g><use xlink:href="#a6uU8cjIA" opacity="1" fill-opacity="0" stroke="#000000" stroke-width="1" stroke-opacity="0"></use></g></g><g><use xlink:href="#kydp1kcy" opacity="1" fill="#b5004a" fill-opacity="1"></use><g><use xlink:href="#kydp1kcy" opacity="1" fill-opacity="0" stroke="#000000" stroke-width="1" stroke-opacity="0"></use></g></g><g><use xlink:href="#aWktZagRC" opacity="1" fill="#ff4b54" fill-opacity="1"></use><g><use xlink:href="#aWktZagRC" opacity="1" fill-opacity="0" stroke="#000000" stroke-width="1" stroke-opacity="0"></use></g></g><g><use xlink:href="#b3YcCJY1Hd" opacity="1" fill="#f70057" fill-opacity="1"></use><g><use xlink:href="#b3YcCJY1Hd" opacity="1" fill-opacity="0" stroke="#000000" stroke-width="1" stroke-opacity="0"></use></g></g><g><use xlink:href="#a3Tm1hYaAt" opacity="1" fill="#ff4b54" fill-opacity="1"></use><g><use xlink:href="#a3Tm1hYaAt" opacity="1" fill-opacity="0" stroke="#000000" stroke-width="1" stroke-opacity="0"></use></g></g><g><use xlink:href="#f1GebhUy5w" opacity="1" fill="#f70057" fill-opacity="1"></use><g><use xlink:href="#f1GebhUy5w" opacity="1" fill-opacity="0" stroke="#000000" stroke-width="1" stroke-opacity="0"></use></g></g><g><use xlink:href="#aqGxrKYHJ" opacity="1" fill="#f70057" fill-opacity="1"></use><g><use xlink:href="#aqGxrKYHJ" opacity="1" fill-opacity="0" stroke="#000000" stroke-width="1" stroke-opacity="0"></use></g></g><g><use xlink:href="#bTyT8ZvfR" opacity="1" fill="#ff4b54" fill-opacity="1"></use><g><use xlink:href="#bTyT8ZvfR" opacity="1" fill-opacity="0" stroke="#000000" stroke-width="1" stroke-opacity="0"></use></g></g><g><use xlink:href="#ayNB1zzeS" opacity="1" fill="#f70057" fill-opacity="1"></use><g><use xlink:href="#ayNB1zzeS" opacity="1" fill-opacity="0" stroke="#000000" stroke-width="1" stroke-opacity="0"></use></g></g><g><use xlink:href="#afayfEIpj" opacity="1" fill="#ff4b54" fill-opacity="1"></use><g><use xlink:href="#afayfEIpj" opacity="1" fill-opacity="0" stroke="#000000" stroke-width="1" stroke-opacity="0"></use></g></g><g><use xlink:href="#d1hi9ulwNY" opacity="1" fill="#f70057" fill-opacity="1"></use><g><use xlink:href="#d1hi9ulwNY" opacity="1" fill-opacity="0" stroke="#000000" stroke-width="1" stroke-opacity="0"></use></g></g><g><use xlink:href="#e2eAH99pIh" opacity="1" fill="#ff4b54" fill-opacity="1"></use><g><use xlink:href="#e2eAH99pIh" opacity="1" fill-opacity="0" stroke="#000000" stroke-width="1" stroke-opacity="0"></use></g></g><g><use xlink:href="#j8wLWEXrV" opacity="1" fill="#b5004a" fill-opacity="1"></use><g><use xlink:href="#j8wLWEXrV" opacity="1" fill-opacity="0" stroke="#000000" stroke-width="1" stroke-opacity="0"></use></g></g><g><use xlink:href="#djOl9wkER" opacity="1" fill="#ff4b54" fill-opacity="1"></use><g><use xlink:href="#djOl9wkER" opacity="1" fill-opacity="0" stroke="#000000" stroke-width="1" stroke-opacity="0"></use></g></g><g><use xlink:href="#e1cXAXGk4o" opacity="1" fill="#b5004a" fill-opacity="1"></use><g><use xlink:href="#e1cXAXGk4o" opacity="1" fill-opacity="0" stroke="#000000" stroke-width="1" stroke-opacity="0"></use></g></g><g><use xlink:href="#caffTttC5" opacity="1" fill="#f70057" fill-opacity="1"></use><g><use xlink:href="#caffTttC5" opacity="1" fill-opacity="0" stroke="#000000" stroke-width="1" stroke-opacity="0"></use></g></g></g></g></svg>