<svg id="Layer_1" enable-background="new 0 0 512 512" height="512" viewBox="0 0 512 512" width="512" xmlns="http://www.w3.org/2000/svg"><g><path d="m159.6 78.2c-8.284 0-15-6.716-15-15v-48.2c0-8.284 6.716-15 15-15s15 6.716 15 15v48.2c0 8.284-6.716 15-15 15z" fill="#3b4442"/><path d="m384.533 78.2c-8.284 0-15-6.716-15-15v-48.2c0-8.284 6.716-15 15-15s15 6.716 15 15v48.2c0 8.284-6.716 15-15 15z" fill="#051917"/><path d="m79.267 399.533c-8.284 0-15-6.716-15-15v-96.4c0-8.284 6.716-15 15-15s15 6.716 15 15v96.4c0 8.284-6.716 15-15 15z" fill="#f0f0f0"/><path d="m497 384.533h-192.8c-8.284 0-15-6.716-15-15v-161.733c0-9.033-7.435-17.133-17.133-17.133h-84.672c-8.561 0-15.689 6.193-16.965 14.731l-7.551 53.064c-3.584 25.446-25.718 44.672-51.479 44.672h-96.4c-8.284 0-15-6.716-15-15v-224.934c0-8.284 6.716-15 15-15h482c8.284 0 15 6.716 15 15v306.333c0 8.284-6.716 15-15 15z" fill="#fb6586"/><path d="m289.2 207.8v161.733c0 8.284 6.716 15 15 15h192.8c8.284 0 15-6.716 15-15v-306.333c0-8.284-6.716-15-15-15h-236.596v142.466h11.663c9.698.001 17.133 8.1 17.133 17.134z" fill="#ff006f"/><circle cx="400.6" cy="159.6" fill="#cb0060" r="47.133"/><path d="m64.267 48.2h30v254.933h-30z" fill="#ff006f"/><path d="m497 512h-482c-8.284 0-15-6.716-15-15v-112.467c0-8.284 6.716-15 15-15h497v127.467c0 8.284-6.716 15-15 15z" fill="#ff006f"/><path d="m512 497v-127.467h-251.596v142.467h236.596c8.284 0 15-6.716 15-15z" fill="#cb0060"/><path d="m400.6 112.467c25.989 0 47.133 21.144 47.133 47.133s-21.144 47.133-47.133 47.133z" fill="#960050"/><circle cx="400.6" cy="288.133" fill="#cb0060" r="47.133"/><path d="m400.6 241c25.989 0 47.133 21.144 47.133 47.133s-21.144 47.133-47.133 47.133z" fill="#960050"/></g></svg>